<svg version="1" xmlns="http://www.w3.org/2000/svg" width="346.667" height="346.667" viewBox="0 0 260.000000 260.000000"><path d="M36.1 45.3c-6.3 3.3-12 9.8-16.1 18.2-2.2 4.4-4.1 9.4-4.4 11.1-1.2 6.7-1.4 10.1-.8 11 .8 1.2 63.4 1.5 64.2.3.3-.4.5-10.1.5-21.6l-.1-20.8-19.8-.1c-17.7 0-20.2.2-23.5 1.9zM101 65v21.7l28.8-.1 28.7-.1.3-21.6.2-21.6-29 .1h-29V65zM180.8 44.4c-.2.6-.4 10.3-.3 21.6l.1 20.5 31.9.1c21.9 0 32.2-.3 32.7-1 1.1-1.7-.2-10.4-2.5-16.6-3.9-10.5-12.5-21.3-19.5-24.2-3.7-1.6-42-1.9-42.4-.4zM14.6 108.9c-.1.3-.2 10-.2 21.6l.1 21h32.2c21.2 0 32.4-.3 32.6-1 .2-.9.1-38.1-.2-41.1-.1-1.1-64-1.6-64.5-.5zM180.9 109c-.7 3.4-.2 42.1.6 42.3.6.2 15.2.3 32.5.3l31.5-.1v-43h-32.2c-17.8-.1-32.4.2-32.4.5zM14.6 173.7c-.9.9.6 11.3 2.4 17 3.4 10.4 9.5 18.9 17 23.6 3.3 2.1 4.7 2.2 24.2 2.3 14 0 20.8-.3 21-1 .3-.9.2-36-.1-40.7-.1-1.3-3.8-1.5-32.1-1.5-17.6 0-32.2.1-32.4.3zM101 195v21.6h58v-43.2h-58V195zM180.9 175.4c-.3 5.8-.4 38.3-.1 39.7.3 1.4 2.8 1.6 21 1.5 19.4-.1 20.9-.2 24.2-2.3 3.9-2.4 9.5-8.1 12.8-12.8 3.1-4.7 6.4-15.3 6.7-22l.3-6.1h-32.4c-32.1-.1-32.4 0-32.5 2z"/></svg>
